<?xml version="1.0"?>
<!-- Converted with SVG Converter - Version 0.9.5 (Compiled Mon May 30 09:08:51 2011) - Copyright (C) 2011 Nokia -->
<svg xmlns="http://www.w3.org/2000/svg" width="96px" x="0px" version="1.1" y="0px" height="96px" viewBox="0 0 96 96" xmlns:xlink="http://www.w3.org/1999/xlink" baseProfile="tiny" xml:space="preserve">
 <g id="DO_NOT_EDIT_-_BOUNDING_BOX">
  <rect width="96" fill="none" height="96" id="BOUNDING_BOX"/>
 </g>
 <g id="DO_NOT_EDIT_-_SHADOW">
  <path stroke-opacity="0.4" fill-opacity="0.4" id="SHADOW" d="M88.023,49c0,29.633-10.364,40-40,40c-29.635,0-40-10.367-40-40c0-29.634,10.366-40,40-40&#xd;&#xa;&#x9;&#x9;C77.659,9,88.023,19.365,88.023,49z"/>
 </g>
 <g display="none" id="GRAY_BACKGROUNDS">
  <g display="inline" id="GRAY5">
   <linearGradient id="GRAY_5_1_" y1="8.0107" x1="47.9995" y2="87.9897" gradientUnits="userSpaceOnUse" x2="47.9995">
    <stop offset="0.0364" style="stop-color:#DDDDDD"/>
    <stop offset="0.4616" style="stop-color:#BFBFC1"/>
    <stop offset="1" style="stop-color:#949499"/>
   </linearGradient>
   <path fill="url(#GRAY_5_1_)" fill-rule="evenodd" id="GRAY_5" d="M8,47.989c0,29.633,10.365,40,40,40&#xd;&#xa;&#x9;&#x9;&#x9;c29.637,0,40-10.367,40-40c0-28.985-9.926-39.53-38.091-39.979h-3.817C17.928,8.459,8,19.004,8,47.989z"/>
   <linearGradient id="HIGHLIGHT_GRA5_1_" y1="8" x1="47.9995" y2="88.0005" gradientUnits="userSpaceOnUse" x2="47.9995">
    <stop offset="0.0364" style="stop-color:#FFFFFF"/>
    <stop offset="0.3366" style="stop-color:#E1E1E3"/>
    <stop offset="0.9874" style="stop-color:#96969A"/>
    <stop offset="1" style="stop-color:#949499"/>
   </linearGradient>
   <path stroke-opacity="0.25" fill="url(#HIGHLIGHT_GRA5_1_)" fill-opacity="0.25" id="HIGHLIGHT_GRA5" d="M48,8C18.365,8,8,18.365,8,48&#xd;&#xa;&#x9;&#x9;&#x9;c0,29.633,10.365,40,40,40c29.637,0,40-10.367,40-40C88,18.365,77.637,8,48,8z M48,87.023C18.842,87.023,9,77.176,9,48&#xd;&#xa;&#x9;&#x9;&#x9;S18.842,8.977,48,8.977S87,18.824,87,48S77.158,87.023,48,87.023z"/>
  </g>
  <g id="GRAY4">
   <linearGradient id="GRAY_4_1_" y1="8.0107" x1="47.9995" y2="87.9897" gradientUnits="userSpaceOnUse" x2="47.9995">
    <stop offset="0.0364" style="stop-color:#E0E0E0"/>
    <stop offset="0.3262" style="stop-color:#D6D6D6"/>
    <stop offset="0.8148" style="stop-color:#BCBCBC"/>
    <stop offset="1" style="stop-color:#B0B0B0"/>
   </linearGradient>
   <path fill="url(#GRAY_4_1_)" display="inline" fill-rule="evenodd" id="GRAY_4" d="M8,47.989&#xd;&#xa;&#x9;&#x9;&#x9;c0,29.633,10.365,40,40,40c29.637,0,40-10.367,40-40c0-28.985-9.926-39.53-38.091-39.979h-3.817C17.928,8.459,8,19.004,8,47.989z"/>
   <linearGradient id="HIGHLIGHT_GRA4_2_" y1="8" x1="47.9995" y2="88.0005" gradientUnits="userSpaceOnUse" x2="47.9995">
    <stop offset="0.0364" style="stop-color:#E8E8E8"/>
    <stop offset="0.2978" style="stop-color:#DEDEDE"/>
    <stop offset="0.7385" style="stop-color:#C4C4C4"/>
    <stop offset="1" style="stop-color:#B1B1B1"/>
   </linearGradient>
   <path fill="url(#HIGHLIGHT_GRA4_2_)" display="inline" id="HIGHLIGHT_GRA4_1_" d="M48,8C18.365,8,8,18.365,8,48&#xd;&#xa;&#x9;&#x9;&#x9;c0,29.633,10.365,40,40,40c29.637,0,40-10.367,40-40C88,18.365,77.637,8,48,8z M48,87.023C18.842,87.023,9,77.176,9,48&#xd;&#xa;&#x9;&#x9;&#x9;S18.842,8.977,48,8.977S87,18.824,87,48S77.158,87.023,48,87.023z"/>
  </g>
  <g id="GRAY3">
   <linearGradient id="GRAY_3_1_" y1="8.0107" x1="47.9995" y2="87.9897" gradientUnits="userSpaceOnUse" x2="47.9995">
    <stop offset="0.0364" style="stop-color:#E9E9E9"/>
    <stop offset="0.3218" style="stop-color:#DFDFDF"/>
    <stop offset="0.8028" style="stop-color:#C5C5C5"/>
    <stop offset="1" style="stop-color:#B8B8B8"/>
   </linearGradient>
   <path fill="url(#GRAY_3_1_)" display="inline" fill-rule="evenodd" id="GRAY_3" d="M8,47.989&#xd;&#xa;&#x9;&#x9;&#x9;c0,29.633,10.365,40,40,40c29.637,0,40-10.367,40-40c0-28.985-9.926-39.53-38.091-39.979h-3.817C17.928,8.459,8,19.004,8,47.989z"/>
   <linearGradient id="HIGHLIGHT_GRA3_2_" y1="8" x1="47.9995" y2="88.0005" gradientUnits="userSpaceOnUse" x2="47.9995">
    <stop offset="0.0364" style="stop-color:#EFEFEF"/>
    <stop offset="0.3133" style="stop-color:#E5E5E5"/>
    <stop offset="0.7799" style="stop-color:#CBCBCB"/>
    <stop offset="1" style="stop-color:#BCBCBC"/>
   </linearGradient>
   <path fill="url(#HIGHLIGHT_GRA3_2_)" display="inline" id="HIGHLIGHT_GRA3_1_" d="M48,8C18.365,8,8,18.365,8,48&#xd;&#xa;&#x9;&#x9;&#x9;c0,29.633,10.365,40,40,40c29.637,0,40-10.367,40-40C88,18.365,77.637,8,48,8z M48,87.023C18.842,87.023,9,77.176,9,48&#xd;&#xa;&#x9;&#x9;&#x9;S18.842,8.977,48,8.977S87,18.824,87,48S77.158,87.023,48,87.023z"/>
  </g>
  <g id="GRAY2">
   <linearGradient id="GRAY_2_1_" y1="8.0107" x1="47.9995" y2="87.9897" gradientUnits="userSpaceOnUse" x2="47.9995">
    <stop offset="0.0364" style="stop-color:#EEEEEE"/>
    <stop offset="0.3262" style="stop-color:#E4E4E4"/>
    <stop offset="0.8148" style="stop-color:#CACACA"/>
    <stop offset="1" style="stop-color:#BEBEBE"/>
   </linearGradient>
   <path fill="url(#GRAY_2_1_)" display="inline" fill-rule="evenodd" id="GRAY_2" d="M8,47.989&#xd;&#xa;&#x9;&#x9;&#x9;c0,29.633,10.365,40,40,40c29.637,0,40-10.367,40-40c0-28.985-9.926-39.53-38.091-39.979h-3.817C17.928,8.459,8,19.004,8,47.989z"/>
   <linearGradient id="HIGHLIGHT_GRA2_1_" y1="8" x1="47.9995" y2="88.0005" gradientUnits="userSpaceOnUse" x2="47.9995">
    <stop offset="0.0364" style="stop-color:#F2F2F2"/>
    <stop offset="0.3133" style="stop-color:#E8E8E8"/>
    <stop offset="0.7799" style="stop-color:#CECECE"/>
    <stop offset="1" style="stop-color:#BFBFBF"/>
   </linearGradient>
   <path fill="url(#HIGHLIGHT_GRA2_1_)" display="inline" id="HIGHLIGHT_GRA2" d="M48,8C18.365,8,8,18.365,8,48&#xd;&#xa;&#x9;&#x9;&#x9;c0,29.633,10.365,40,40,40c29.637,0,40-10.367,40-40C88,18.365,77.637,8,48,8z M48,87.023C18.842,87.023,9,77.176,9,48&#xd;&#xa;&#x9;&#x9;&#x9;S18.842,8.977,48,8.977S87,18.824,87,48S77.158,87.023,48,87.023z"/>
  </g>
  <g id="GRAY1">
   <linearGradient id="GRAY_1_1_" y1="8.0107" x1="47.9995" y2="87.9897" gradientUnits="userSpaceOnUse" x2="47.9995">
    <stop offset="0.0364" style="stop-color:#F9F9F9"/>
    <stop offset="0.2102" style="stop-color:#EFEFEF"/>
    <stop offset="0.5042" style="stop-color:#D6D6D5"/>
    <stop offset="0.8303" style="stop-color:#B2B2B0"/>
    <stop offset="1" style="stop-color:#ABABA8"/>
   </linearGradient>
   <path fill="url(#GRAY_1_1_)" display="inline" fill-rule="evenodd" id="GRAY_1" d="M8,47.989&#xd;&#xa;&#x9;&#x9;&#x9;c0,29.633,10.365,40,40,40c29.637,0,40-10.367,40-40c0-28.985-9.926-39.53-38.091-39.979h-3.817C17.928,8.459,8,19.004,8,47.989z"/>
   <linearGradient id="HIGHLIGHT_GRA1_1_" y1="8" x1="47.9995" y2="88.0005" gradientUnits="userSpaceOnUse" x2="47.9995">
    <stop offset="0.0364" style="stop-color:#FCFCFC"/>
    <stop offset="0.2262" style="stop-color:#F3F3F2"/>
    <stop offset="0.5471" style="stop-color:#DAD9D8"/>
    <stop offset="0.9576" style="stop-color:#B2B0AD"/>
    <stop offset="1" style="stop-color:#ADABA8"/>
   </linearGradient>
   <path fill="url(#HIGHLIGHT_GRA1_1_)" display="inline" id="HIGHLIGHT_GRA1" d="M48,8C18.365,8,8,18.365,8,48&#xd;&#xa;&#x9;&#x9;&#x9;c0,29.633,10.365,40,40,40c29.637,0,40-10.367,40-40C88,18.365,77.637,8,48,8z M48,87.023C18.842,87.023,9,77.176,9,48&#xd;&#xa;&#x9;&#x9;&#x9;S18.842,8.977,48,8.977S87,18.824,87,48S77.158,87.023,48,87.023z"/>
  </g>
 </g>
 <g display="none" id="ORANGE_BACKGROUNDS">
  <g display="inline" id="ORANGE_5">
   <linearGradient id="RED_x2F_ORANGE_5_2_" y1="8.0107" x1="47.9995" y2="87.9897" gradientUnits="userSpaceOnUse" x2="47.9995">
    <stop offset="0" style="stop-color:#FFDB62"/>
    <stop offset="0.1393" style="stop-color:#FAD15C"/>
    <stop offset="0.3741" style="stop-color:#EDB74D"/>
    <stop offset="0.4848" style="stop-color:#E6A844"/>
    <stop offset="1" style="stop-color:#C96B25"/>
   </linearGradient>
   <path fill="url(#RED_x2F_ORANGE_5_2_)" id="RED_x2F_ORANGE_5_1_" d="M8,47.988c0,29.634,10.365,40.001,40,40.001&#xd;&#xa;&#x9;&#x9;&#x9;c29.637,0,40-10.367,40-40.001c0-28.984-9.926-39.529-38.091-39.978h-3.817C17.928,8.459,8,19.004,8,47.988z"/>
   <linearGradient id="HIGHLIGHTS_RO5_1_" y1="8.2559" x1="47.9995" y2="87.5043" gradientUnits="userSpaceOnUse" x2="47.9995">
    <stop offset="0" style="stop-color:#FFFFFF"/>
    <stop offset="0.0958" style="stop-color:#FDF8F5"/>
    <stop offset="0.2579" style="stop-color:#F6E6DB"/>
    <stop offset="0.4666" style="stop-color:#EBC9AF"/>
    <stop offset="0.7136" style="stop-color:#DCA073"/>
    <stop offset="0.9904" style="stop-color:#CA6D28"/>
    <stop offset="1" style="stop-color:#C96B25"/>
   </linearGradient>
   <path stroke-opacity="0.25" fill="url(#HIGHLIGHTS_RO5_1_)" fill-opacity="0.25" id="HIGHLIGHTS_RO5" d="M48,8C18.365,8,8,18.365,8,48&#xd;&#xa;&#x9;&#x9;&#x9;c0,29.633,10.365,40,40,40c29.637,0,40-10.367,40-40C88,18.365,77.637,8,48,8z M48,87.023C18.842,87.023,9,77.176,9,48&#xd;&#xa;&#x9;&#x9;&#x9;S18.842,8.977,48,8.977S87,18.824,87,48S77.158,87.023,48,87.023z"/>
  </g>
  <g id="ORANGE_4">
   <linearGradient id="RED_x2F_ORANGE_4_1_" y1="8.0107" x1="47.9995" y2="87.9897" gradientUnits="userSpaceOnUse" x2="47.9995">
    <stop offset="0.0364" style="stop-color:#FBBF60"/>
    <stop offset="0.2109" style="stop-color:#F8B556"/>
    <stop offset="0.503" style="stop-color:#F19B3D"/>
    <stop offset="1" style="stop-color:#C76121"/>
   </linearGradient>
   <path fill="url(#RED_x2F_ORANGE_4_1_)" display="inline" id="RED_x2F_ORANGE_4_2_" d="M8,47.988c0,29.634,10.365,40.001,40,40.001&#xd;&#xa;&#x9;&#x9;&#x9;c29.637,0,40-10.367,40-40.001c0-28.984-9.926-39.529-38.091-39.978h-3.817C17.928,8.459,8,19.004,8,47.988z"/>
   <linearGradient id="HIGHLIGHTS_RO4_2_" y1="8.2559" x1="47.9995" y2="87.5043" gradientUnits="userSpaceOnUse" x2="47.9995">
    <stop offset="0.0364" style="stop-color:#FFFFFF"/>
    <stop offset="0.1274" style="stop-color:#FDF8F5"/>
    <stop offset="0.2815" style="stop-color:#F6E5DB"/>
    <stop offset="0.4799" style="stop-color:#EBC6AF"/>
    <stop offset="0.7147" style="stop-color:#DC9C73"/>
    <stop offset="0.9778" style="stop-color:#C96628"/>
    <stop offset="1" style="stop-color:#C76121"/>
   </linearGradient>
   <path stroke-opacity="0.25" fill="url(#HIGHLIGHTS_RO4_2_)" display="inline" fill-opacity="0.25" id="HIGHLIGHTS_RO4_1_" d="M48,8C18.365,8,8,18.365,8,48&#xd;&#xa;&#x9;&#x9;&#x9;c0,29.633,10.365,40,40,40c29.637,0,40-10.367,40-40C88,18.365,77.637,8,48,8z M48,87.023C18.842,87.023,9,77.176,9,48&#xd;&#xa;&#x9;&#x9;&#x9;S18.842,8.977,48,8.977S87,18.824,87,48S77.158,87.023,48,87.023z"/>
  </g>
  <g id="ORANGE_3">
   <linearGradient id="RED_x2F_ORANGE_3_2_" y1="8.0107" x1="47.9995" y2="87.9897" gradientUnits="userSpaceOnUse" x2="47.9995">
    <stop offset="0.0364" style="stop-color:#F6B85E"/>
    <stop offset="0.2008" style="stop-color:#F4AE5A"/>
    <stop offset="0.478" style="stop-color:#EE9451"/>
    <stop offset="0.5394" style="stop-color:#EC8D4E"/>
    <stop offset="0.8228" style="stop-color:#D46A3B"/>
    <stop offset="1" style="stop-color:#C95932"/>
   </linearGradient>
   <path fill="url(#RED_x2F_ORANGE_3_2_)" display="inline" id="RED_x2F_ORANGE_3_1_" d="M8,47.988c0,29.634,10.365,40.001,40,40.001&#xd;&#xa;&#x9;&#x9;&#x9;c29.637,0,40-10.367,40-40.001c0-28.984-9.926-39.529-38.091-39.978h-3.817C17.928,8.459,8,19.004,8,47.988z"/>
   <linearGradient id="HIGHLIGHTS_RO3_2_" y1="8.2559" x1="47.9995" y2="87.5043" gradientUnits="userSpaceOnUse" x2="47.9995">
    <stop offset="0.0364" style="stop-color:#FFFFFF"/>
    <stop offset="0.133" style="stop-color:#FCF7F5"/>
    <stop offset="0.2967" style="stop-color:#F5E2DB"/>
    <stop offset="0.5073" style="stop-color:#EABFAF"/>
    <stop offset="0.7537" style="stop-color:#DA8F74"/>
    <stop offset="1" style="stop-color:#C95932"/>
   </linearGradient>
   <path stroke-opacity="0.25" fill="url(#HIGHLIGHTS_RO3_2_)" display="inline" fill-opacity="0.25" id="HIGHLIGHTS_RO3_1_" d="M48,8C18.365,8,8,18.365,8,48&#xd;&#xa;&#x9;&#x9;&#x9;c0,29.633,10.365,40,40,40c29.637,0,40-10.367,40-40C88,18.365,77.637,8,48,8z M48,87.023C18.842,87.023,9,77.176,9,48&#xd;&#xa;&#x9;&#x9;&#x9;S18.842,8.977,48,8.977S87,18.824,87,48S77.158,87.023,48,87.023z"/>
  </g>
  <g id="ORANGE_2">
   <linearGradient id="RED_x2F_ORANGE_2_1_" y1="8.0107" x1="47.9995" y2="87.9897" gradientUnits="userSpaceOnUse" x2="47.9995">
    <stop offset="0.0364" style="stop-color:#FAA824"/>
    <stop offset="0.3742" style="stop-color:#EA8A20"/>
    <stop offset="1" style="stop-color:#C74A17"/>
   </linearGradient>
   <path fill="url(#RED_x2F_ORANGE_2_1_)" display="inline" id="RED_x2F_ORANGE_2_2_" d="M8,47.988c0,29.634,10.365,40.001,40,40.001&#xd;&#xa;&#x9;&#x9;&#x9;c29.637,0,40-10.367,40-40.001c0-28.984-9.926-39.529-38.091-39.978h-3.817C17.928,8.459,8,19.004,8,47.988z"/>
   <linearGradient id="HIGHLIGHTS_RO2_1_" y1="8.2559" x1="47.9995" y2="87.5043" gradientUnits="userSpaceOnUse" x2="47.9995">
    <stop offset="0.0364" style="stop-color:#FFFFFF"/>
    <stop offset="0.185" style="stop-color:#F8E8E1"/>
    <stop offset="0.5097" style="stop-color:#E5AC95"/>
    <stop offset="0.9833" style="stop-color:#C84D1B"/>
    <stop offset="1" style="stop-color:#C74A17"/>
   </linearGradient>
   <path stroke-opacity="0.25" fill="url(#HIGHLIGHTS_RO2_1_)" display="inline" fill-opacity="0.25" id="HIGHLIGHTS_RO2_2_" d="M48,8C18.365,8,8,18.365,8,48&#xd;&#xa;&#x9;&#x9;&#x9;c0,29.633,10.365,40,40,40c29.637,0,40-10.367,40-40C88,18.365,77.637,8,48,8z M48,87.023C18.842,87.023,9,77.176,9,48&#xd;&#xa;&#x9;&#x9;&#x9;S18.842,8.977,48,8.977S87,18.824,87,48S77.158,87.023,48,87.023z"/>
  </g>
  <g id="ORANGE_1">
   <linearGradient id="RED_x2F_ORANGE_1_2_" y1="8.0107" x1="47.9995" y2="87.9897" gradientUnits="userSpaceOnUse" x2="47.9995">
    <stop offset="0.0364" style="stop-color:#FF8A36"/>
    <stop offset="0.3489" style="stop-color:#EF7130"/>
    <stop offset="1" style="stop-color:#C73321"/>
   </linearGradient>
   <path fill="url(#RED_x2F_ORANGE_1_2_)" display="inline" id="RED_x2F_ORANGE_1_1_" d="M8,47.988c0,29.634,10.365,40.001,40,40.001&#xd;&#xa;&#x9;&#x9;&#x9;c29.637,0,40-10.367,40-40.001c0-28.984-9.926-39.529-38.091-39.978h-3.817C17.928,8.459,8,19.004,8,47.988z"/>
   <linearGradient id="HIGHLIGHTS_RO1_2_" y1="8.2559" x1="47.9995" y2="87.5043" gradientUnits="userSpaceOnUse" x2="47.9995">
    <stop offset="0.0364" style="stop-color:#FFFFFF"/>
    <stop offset="0.1274" style="stop-color:#FCF7F5"/>
    <stop offset="0.2815" style="stop-color:#F5E0DB"/>
    <stop offset="0.4799" style="stop-color:#EABBAF"/>
    <stop offset="0.7147" style="stop-color:#DA8873"/>
    <stop offset="0.9778" style="stop-color:#C64828"/>
    <stop offset="1" style="stop-color:#C44221"/>
   </linearGradient>
   <path stroke-opacity="0.25" fill="url(#HIGHLIGHTS_RO1_2_)" display="inline" fill-opacity="0.25" id="HIGHLIGHTS_RO1_1_" d="M48,8C18.365,8,8,18.365,8,48&#xd;&#xa;&#x9;&#x9;&#x9;c0,29.633,10.365,40,40,40c29.637,0,40-10.367,40-40C88,18.365,77.637,8,48,8z M48,87.023C18.842,87.023,9,77.176,9,48&#xd;&#xa;&#x9;&#x9;&#x9;S18.842,8.977,48,8.977S87,18.824,87,48S77.158,87.023,48,87.023z"/>
  </g>
 </g>
 <g display="none" id="GREEN_BACKGROUNDS">
  <g display="inline" id="GREEN4">
   <linearGradient id="GREEN_4_1_" y1="8.0107" x1="47.9995" y2="87.9897" gradientUnits="userSpaceOnUse" x2="47.9995">
    <stop offset="0.0364" style="stop-color:#6BAB40"/>
    <stop offset="0.6061" style="stop-color:#537734"/>
    <stop offset="1" style="stop-color:#4F5C26"/>
   </linearGradient>
   <path fill="url(#GREEN_4_1_)" fill-rule="evenodd" id="GREEN_4_3_" d="M8,47.989c0,29.633,10.365,40,40,40&#xd;&#xa;&#x9;&#x9;&#x9;c29.637,0,40-10.367,40-40c0-28.985-9.926-39.53-38.091-39.979h-3.817C17.928,8.459,8,19.004,8,47.989z"/>
   <linearGradient id="HIGHLIGHT_GR4_1_" y1="8" x1="47.9995" y2="88.0005" gradientUnits="userSpaceOnUse" x2="47.9995">
    <stop offset="0.0364" style="stop-color:#FFFFFF"/>
    <stop offset="0.8255" style="stop-color:#6F7A4E"/>
    <stop offset="1" style="stop-color:#4F5C26"/>
   </linearGradient>
   <path stroke-opacity="0.25" fill="url(#HIGHLIGHT_GR4_1_)" fill-opacity="0.25" id="HIGHLIGHT_GR4" d="M48,8C18.365,8,8,18.365,8,48c0,29.633,10.365,40,40,40&#xd;&#xa;&#x9;&#x9;&#x9;c29.637,0,40-10.367,40-40C88,18.365,77.637,8,48,8z M48,87.023C18.842,87.023,9,77.176,9,48S18.842,8.977,48,8.977&#xd;&#xa;&#x9;&#x9;&#x9;S87,18.824,87,48S77.158,87.023,48,87.023z"/>
  </g>
  <g id="GREEN3">
   <linearGradient id="GREEN_3_1_" y1="8.0107" x1="47.9995" y2="87.9897" gradientUnits="userSpaceOnUse" x2="47.9995">
    <stop offset="0.0364" style="stop-color:#70B83B"/>
    <stop offset="0.2066" style="stop-color:#6AAE37"/>
    <stop offset="0.4945" style="stop-color:#5B942B"/>
    <stop offset="0.8626" style="stop-color:#426917"/>
    <stop offset="1" style="stop-color:#38570F"/>
   </linearGradient>
   <path fill="url(#GREEN_3_1_)" display="inline" fill-rule="evenodd" id="GREEN_3_2_" d="M8,47.989&#xd;&#xa;&#x9;&#x9;&#x9;c0,29.633,10.365,40,40,40c29.637,0,40-10.367,40-40c0-28.985-9.926-39.53-38.091-39.979h-3.817C17.928,8.459,8,19.004,8,47.989z"/>
   <linearGradient id="HIGHLIGHT_GR3_1_" y1="8" x1="47.9995" y2="88.0005" gradientUnits="userSpaceOnUse" x2="47.9995">
    <stop offset="0.0364" style="stop-color:#FFFFFF"/>
    <stop offset="0.1222" style="stop-color:#F7F8F5"/>
    <stop offset="0.2675" style="stop-color:#E1E5DB"/>
    <stop offset="0.4545" style="stop-color:#BDC7AF"/>
    <stop offset="0.6759" style="stop-color:#8B9D73"/>
    <stop offset="0.9238" style="stop-color:#4D6828"/>
    <stop offset="1" style="stop-color:#38570F"/>
   </linearGradient>
   <path stroke-opacity="0.25" fill="url(#HIGHLIGHT_GR3_1_)" display="inline" fill-opacity="0.25" id="HIGHLIGHT_GR3" d="M48,8C18.365,8,8,18.365,8,48&#xd;&#xa;&#x9;&#x9;&#x9;c0,29.633,10.365,40,40,40c29.637,0,40-10.367,40-40C88,18.365,77.637,8,48,8z M48,87.023C18.842,87.023,9,77.176,9,48&#xd;&#xa;&#x9;&#x9;&#x9;S18.842,8.977,48,8.977S87,18.824,87,48S77.158,87.023,48,87.023z"/>
  </g>
  <g id="GREEN2">
   <linearGradient id="GREEN_2_1_" y1="8.0107" x1="47.9995" y2="87.9897" gradientUnits="userSpaceOnUse" x2="47.9995">
    <stop offset="0.0364" style="stop-color:#75B561"/>
    <stop offset="0.223" style="stop-color:#6EAB5E"/>
    <stop offset="0.5376" style="stop-color:#5B9157"/>
    <stop offset="0.6667" style="stop-color:#528454"/>
    <stop offset="1" style="stop-color:#4B6145"/>
   </linearGradient>
   <path fill="url(#GREEN_2_1_)" display="inline" fill-rule="evenodd" id="GREEN_2_2_" d="M8,47.989&#xd;&#xa;&#x9;&#x9;&#x9;c0,29.633,10.365,40,40,40c29.637,0,40-10.367,40-40c0-28.985-9.926-39.53-38.091-39.979h-3.817C17.928,8.459,8,19.004,8,47.989z"/>
   <linearGradient id="HIGHLIGHT_GR2_1_" y1="8" x1="47.9995" y2="88.0005" gradientUnits="userSpaceOnUse" x2="47.9995">
    <stop offset="0.0364" style="stop-color:#FFFFFF"/>
    <stop offset="0.1404" style="stop-color:#F5F7F5"/>
    <stop offset="0.3165" style="stop-color:#DCE0DB"/>
    <stop offset="0.543" style="stop-color:#B2BBAF"/>
    <stop offset="0.8084" style="stop-color:#798974"/>
    <stop offset="1" style="stop-color:#4B6145"/>
   </linearGradient>
   <path stroke-opacity="0.25" fill="url(#HIGHLIGHT_GR2_1_)" display="inline" fill-opacity="0.25" id="HIGHLIGHT_GR2" d="M48,8C18.365,8,8,18.365,8,48&#xd;&#xa;&#x9;&#x9;&#x9;c0,29.633,10.365,40,40,40c29.637,0,40-10.367,40-40C88,18.365,77.637,8,48,8z M48,87.023C18.842,87.023,9,77.176,9,48&#xd;&#xa;&#x9;&#x9;&#x9;S18.842,8.977,48,8.977S87,18.824,87,48S77.158,87.023,48,87.023z"/>
  </g>
  <g id="GREEN1">
   <linearGradient id="GREEN_1_1_" y1="8.0107" x1="47.9995" y2="87.9897" gradientUnits="userSpaceOnUse" x2="47.9995">
    <stop offset="0.0364" style="stop-color:#9CD061"/>
    <stop offset="0.219" style="stop-color:#94C957"/>
    <stop offset="0.5269" style="stop-color:#7DB63D"/>
    <stop offset="0.6909" style="stop-color:#6FAA2C"/>
    <stop offset="1" style="stop-color:#4A8021"/>
   </linearGradient>
   <path fill="url(#GREEN_1_1_)" display="inline" fill-rule="evenodd" id="GREEN_1_2_" d="M8,47.989&#xd;&#xa;&#x9;&#x9;&#x9;c0,29.633,10.365,40,40,40c29.637,0,40-10.367,40-40c0-28.985-9.926-39.53-38.091-39.979h-3.817C17.928,8.459,8,19.004,8,47.989z"/>
   <linearGradient id="HIGHLIGHT_GR1_1_" y1="8" x1="47.9995" y2="88.0005" gradientUnits="userSpaceOnUse" x2="47.9995">
    <stop offset="0.0364" style="stop-color:#FFFFFF"/>
    <stop offset="0.1274" style="stop-color:#F7F9F5"/>
    <stop offset="0.2815" style="stop-color:#E1EADB"/>
    <stop offset="0.4799" style="stop-color:#BED1AF"/>
    <stop offset="0.7147" style="stop-color:#8DAF73"/>
    <stop offset="0.9778" style="stop-color:#4F8428"/>
    <stop offset="1" style="stop-color:#4A8021"/>
   </linearGradient>
   <path stroke-opacity="0.25" fill="url(#HIGHLIGHT_GR1_1_)" display="inline" fill-opacity="0.25" id="HIGHLIGHT_GR1" d="M48,8C18.365,8,8,18.365,8,48&#xd;&#xa;&#x9;&#x9;&#x9;c0,29.633,10.365,40,40,40c29.637,0,40-10.367,40-40C88,18.365,77.637,8,48,8z M48,87.023C18.842,87.023,9,77.176,9,48&#xd;&#xa;&#x9;&#x9;&#x9;S18.842,8.977,48,8.977S87,18.824,87,48S77.158,87.023,48,87.023z"/>
  </g>
 </g>
 <g id="BLUE_BACKGROUNDS">
  <g id="BLUE_4_2_">
   <linearGradient id="BLUE_4_3_" y1="8.0107" x1="47.9995" y2="87.9897" gradientUnits="userSpaceOnUse" x2="47.9995">
    <stop offset="0.0364" style="stop-color:#4791D9"/>
    <stop offset="0.2496" style="stop-color:#4288CF"/>
    <stop offset="0.6102" style="stop-color:#366EB5"/>
    <stop offset="1" style="stop-color:#264C91"/>
   </linearGradient>
   <path fill="url(#BLUE_4_3_)" id="BLUE_4_1_" d="M8,47.989c0,29.633,10.365,40,40,40c29.637,0,40-10.367,40-40&#xd;&#xa;&#x9;&#x9;&#x9;c0-28.985-9.926-39.53-38.091-39.979h-3.817C17.928,8.459,8,19.004,8,47.989z"/>
   <linearGradient id="HIGHLIGHT_BLU4_1_" y1="8.2559" x1="47.9995" y2="87.5043" gradientUnits="userSpaceOnUse" x2="47.9995">
    <stop offset="0.0364" style="stop-color:#FFFFFF"/>
    <stop offset="0.129" style="stop-color:#F5F7FA"/>
    <stop offset="0.2858" style="stop-color:#DBE1ED"/>
    <stop offset="0.4876" style="stop-color:#AFBDD7"/>
    <stop offset="0.7265" style="stop-color:#738CB8"/>
    <stop offset="0.9942" style="stop-color:#284D92"/>
    <stop offset="1" style="stop-color:#264C91"/>
   </linearGradient>
   <path stroke-opacity="0.25" fill="url(#HIGHLIGHT_BLU4_1_)" fill-opacity="0.25" id="HIGHLIGHT_BLU4" d="M48,8C18.365,8,8,18.365,8,48&#xd;&#xa;&#x9;&#x9;&#x9;c0,29.633,10.365,40,40,40c29.637,0,40-10.367,40-40C88,18.365,77.637,8,48,8z M48,87.023C18.842,87.023,9,77.176,9,48&#xd;&#xa;&#x9;&#x9;&#x9;S18.842,8.977,48,8.977S87,18.824,87,48S77.158,87.023,48,87.023z"/>
  </g>
  <g id="BLUE_3_2_">
   <linearGradient id="BLUE_3_3_" y1="8.0107" x1="47.9995" y2="87.9897" gradientUnits="userSpaceOnUse" x2="47.9995">
    <stop offset="0.0364" style="stop-color:#66A2D3"/>
    <stop offset="0.2002" style="stop-color:#5C9BCE"/>
    <stop offset="0.4773" style="stop-color:#4289C1"/>
    <stop offset="0.8316" style="stop-color:#176CAB"/>
    <stop offset="1" style="stop-color:#005DA0"/>
   </linearGradient>
   <path fill="url(#BLUE_3_3_)" id="BLUE_3_1_" d="M8,47.989c0,29.633,10.365,40,40,40c29.637,0,40-10.367,40-40&#xd;&#xa;&#x9;&#x9;&#x9;c0-28.985-9.926-39.53-38.091-39.979h-3.817C17.928,8.459,8,19.004,8,47.989z"/>
   <linearGradient id="HIGHLIGHT_BLU3_1_" y1="8.2559" x1="47.9995" y2="87.5043" gradientUnits="userSpaceOnUse" x2="47.9995">
    <stop offset="0.0364" style="stop-color:#FFFFFF"/>
    <stop offset="0.1184" style="stop-color:#F5F9FC"/>
    <stop offset="0.2572" style="stop-color:#DBE9F5"/>
    <stop offset="0.4359" style="stop-color:#AFCFEA"/>
    <stop offset="0.6475" style="stop-color:#73ACDA"/>
    <stop offset="0.8842" style="stop-color:#287FC6"/>
    <stop offset="1" style="stop-color:#0067BC"/>
   </linearGradient>
   <path stroke-opacity="0.25" fill="url(#HIGHLIGHT_BLU3_1_)" fill-opacity="0.25" id="HIGHLIGHT_BLU3" d="M48,8C18.365,8,8,18.365,8,48&#xd;&#xa;&#x9;&#x9;&#x9;c0,29.633,10.365,40,40,40c29.637,0,40-10.367,40-40C88,18.365,77.637,8,48,8z M48,87.023C18.842,87.023,9,77.176,9,48&#xd;&#xa;&#x9;&#x9;&#x9;S18.842,8.977,48,8.977S87,18.824,87,48S77.158,87.023,48,87.023z"/>
  </g>
  <g display="none" id="BLUE_2_2_">
   <linearGradient id="BLUE_2_3_" y1="8.0107" x1="47.9995" y2="87.9897" gradientUnits="userSpaceOnUse" x2="47.9995">
    <stop offset="0.0364" style="stop-color:#63B3E0"/>
    <stop offset="0.204" style="stop-color:#59ACDA"/>
    <stop offset="0.4875" style="stop-color:#3F99C9"/>
    <stop offset="0.8499" style="stop-color:#147BAE"/>
    <stop offset="1" style="stop-color:#006DA2"/>
   </linearGradient>
   <path fill="url(#BLUE_2_3_)" display="inline" id="BLUE_2_1_" d="M8,47.989c0,29.633,10.365,40,40,40c29.637,0,40-10.367,40-40&#xd;&#xa;&#x9;&#x9;&#x9;c0-28.985-9.926-39.53-38.091-39.979h-3.817C17.928,8.459,8,19.004,8,47.989z"/>
   <linearGradient id="HIGHLIGHT_BLU2_1_" y1="8.2559" x1="47.9995" y2="87.5043" gradientUnits="userSpaceOnUse" x2="47.9995">
    <stop offset="0.0364" style="stop-color:#FFFFFF"/>
    <stop offset="0.1233" style="stop-color:#F5F9FB"/>
    <stop offset="0.2704" style="stop-color:#DBE7F0"/>
    <stop offset="0.4598" style="stop-color:#AFCBDD"/>
    <stop offset="0.6841" style="stop-color:#73A4C4"/>
    <stop offset="0.9352" style="stop-color:#2873A4"/>
    <stop offset="1" style="stop-color:#13659B"/>
   </linearGradient>
   <path stroke-opacity="0.25" fill="url(#HIGHLIGHT_BLU2_1_)" display="inline" fill-opacity="0.25" id="HIGHLIGHT_BLU2" d="M48,8C18.365,8,8,18.365,8,48&#xd;&#xa;&#x9;&#x9;&#x9;c0,29.633,10.365,40,40,40c29.637,0,40-10.367,40-40C88,18.365,77.637,8,48,8z M48,87.023C18.842,87.023,9,77.176,9,48&#xd;&#xa;&#x9;&#x9;&#x9;S18.842,8.977,48,8.977S87,18.824,87,48S77.158,87.023,48,87.023z"/>
  </g>
  <g display="none" id="BLUE_1_1_">
   <linearGradient id="BLUE_1_3_" y1="8.0107" x1="47.9995" y2="87.9897" gradientUnits="userSpaceOnUse" x2="47.9995">
    <stop offset="0.0364" style="stop-color:#6BCFDB"/>
    <stop offset="0.1944" style="stop-color:#61C7D4"/>
    <stop offset="0.4617" style="stop-color:#47B0C3"/>
    <stop offset="0.8033" style="stop-color:#1C8CA6"/>
    <stop offset="1" style="stop-color:#007594"/>
   </linearGradient>
   <path fill="url(#BLUE_1_3_)" display="inline" id="BLUE_1_2_" d="M8,47.989c0,29.633,10.365,40,40,40c29.637,0,40-10.367,40-40&#xd;&#xa;&#x9;&#x9;&#x9;c0-28.985-9.926-39.53-38.091-39.979h-3.817C17.928,8.459,8,19.004,8,47.989z"/>
   <linearGradient id="HIGHLIGHT_BLU1_1_" y1="8.2559" x1="47.9995" y2="87.5043" gradientUnits="userSpaceOnUse" x2="47.9995">
    <stop offset="0.0364" style="stop-color:#FFFDF2"/>
    <stop offset="0.1064" style="stop-color:#F5F8F0"/>
    <stop offset="0.2248" style="stop-color:#DBEBE9"/>
    <stop offset="0.3771" style="stop-color:#AFD5DF"/>
    <stop offset="0.5394" style="stop-color:#7ABAD2"/>
    <stop offset="1" style="stop-color:#00879A"/>
   </linearGradient>
   <path stroke-opacity="0.25" fill="url(#HIGHLIGHT_BLU1_1_)" display="inline" fill-opacity="0.25" id="HIGHLIGHT_BLU1" d="M48,8C18.365,8,8,18.365,8,48&#xd;&#xa;&#x9;&#x9;&#x9;c0,29.633,10.365,40,40,40c29.637,0,40-10.367,40-40C88,18.365,77.637,8,48,8z M48,87.023C18.842,87.023,9,77.176,9,48&#xd;&#xa;&#x9;&#x9;&#x9;S18.842,8.977,48,8.977S87,18.824,87,48S77.158,87.023,48,87.023z"/>
  </g>
 </g>
 <g display="none" id="VIOLET_x2F_PINK_BACKGROUNDS">
  <g display="inline" id="PINK_2_2_">
   <linearGradient id="PINK_2_3_" y1="8.0107" x1="47.9995" y2="87.9897" gradientUnits="userSpaceOnUse" x2="47.9995">
    <stop offset="0.0364" style="stop-color:#FF61C7"/>
    <stop offset="0.1942" style="stop-color:#F759C1"/>
    <stop offset="0.4381" style="stop-color:#E145B1"/>
    <stop offset="0.7357" style="stop-color:#BE2396"/>
    <stop offset="1" style="stop-color:#99007A"/>
   </linearGradient>
   <path fill="url(#PINK_2_3_)" id="PINK_2_1_" d="M8,47.988c0,29.634,10.365,40.001,40,40.001c29.637,0,40-10.367,40-40.001&#xd;&#xa;&#x9;&#x9;&#x9;c0-28.984-9.926-39.529-38.091-39.978h-3.817C17.928,8.459,8,19.004,8,47.988z"/>
   <linearGradient id="HIGHLIGHT_PI2_2_" y1="8.2554" x1="47.9995" y2="87.5043" gradientUnits="userSpaceOnUse" x2="47.9995">
    <stop offset="0.0364" style="stop-color:#FFFFFF"/>
    <stop offset="0.119" style="stop-color:#FCF7FB"/>
    <stop offset="0.2468" style="stop-color:#F3E1F0"/>
    <stop offset="0.4038" style="stop-color:#E5BEDD"/>
    <stop offset="0.5839" style="stop-color:#D18CC3"/>
    <stop offset="0.7837" style="stop-color:#B84DA2"/>
    <stop offset="0.9971" style="stop-color:#99017B"/>
    <stop offset="1" style="stop-color:#99007A"/>
   </linearGradient>
   <path stroke-opacity="0.25" fill="url(#HIGHLIGHT_PI2_2_)" fill-opacity="0.25" id="HIGHLIGHT_PI2_1_" d="M48,8C18.365,8,8,18.365,8,48&#xd;&#xa;&#x9;&#x9;&#x9;c0,29.632,10.365,40,40,40c29.637,0,40-10.367,40-40C88,18.365,77.637,8,48,8z M48,87.023C18.842,87.023,9,77.176,9,48&#xd;&#xa;&#x9;&#x9;&#x9;C9,18.824,18.842,8.976,48,8.976S87,18.824,87,48C87,77.176,77.158,87.023,48,87.023z"/>
  </g>
  <g id="PINK_1_2_">
   <linearGradient id="PINK_1_3_" y1="8.0107" x1="47.9995" y2="87.9897" gradientUnits="userSpaceOnUse" x2="47.9995">
    <stop offset="0.0364" style="stop-color:#E64DD4"/>
    <stop offset="0.2159" style="stop-color:#DE46CE"/>
    <stop offset="0.4932" style="stop-color:#C832BC"/>
    <stop offset="0.8319" style="stop-color:#A5129F"/>
    <stop offset="1" style="stop-color:#91008F"/>
   </linearGradient>
   <path fill="url(#PINK_1_3_)" display="inline" id="PINK_1_1_" d="M8,47.989c0,29.633,10.365,40,40,40c29.637,0,40-10.367,40-40&#xd;&#xa;&#x9;&#x9;&#x9;c0-28.985-9.926-39.53-38.091-39.979h-3.817C17.928,8.459,8,19.004,8,47.989z"/>
   <linearGradient id="HIGHLIGHT_PI2_3_" y1="8.2554" x1="47.9995" y2="87.5043" gradientUnits="userSpaceOnUse" x2="47.9995">
    <stop offset="0.0364" style="stop-color:#FFFFFF"/>
    <stop offset="0.119" style="stop-color:#FCF7FC"/>
    <stop offset="0.2468" style="stop-color:#F2E1F2"/>
    <stop offset="0.4038" style="stop-color:#E3BEE2"/>
    <stop offset="0.5839" style="stop-color:#CE8CCD"/>
    <stop offset="0.7837" style="stop-color:#B24DB1"/>
    <stop offset="0.9971" style="stop-color:#91018F"/>
    <stop offset="1" style="stop-color:#91008F"/>
   </linearGradient>
   <path stroke-opacity="0.25" fill="url(#HIGHLIGHT_PI2_3_)" display="inline" fill-opacity="0.25" id="HIGHLIGHT_PI2" d="M48,8C18.365,8,8,18.365,8,48&#xd;&#xa;&#x9;&#x9;&#x9;c0,29.632,10.365,40,40,40c29.637,0,40-10.367,40-40C88,18.365,77.637,8,48,8z M48,87.023C18.842,87.023,9,77.176,9,48&#xd;&#xa;&#x9;&#x9;&#x9;C9,18.824,18.842,8.976,48,8.976S87,18.824,87,48C87,77.176,77.158,87.023,48,87.023z"/>
  </g>
  <g id="VIOLET_2_2_">
   <linearGradient id="VIOLET_2_3_" y1="8.0107" x1="47.9995" y2="90.757" gradientUnits="userSpaceOnUse" x2="47.9995">
    <stop offset="0.0364" style="stop-color:#BA66E0"/>
    <stop offset="0.2174" style="stop-color:#B260D8"/>
    <stop offset="0.497" style="stop-color:#9D51C2"/>
    <stop offset="0.8385" style="stop-color:#7C379F"/>
    <stop offset="1" style="stop-color:#69298C"/>
   </linearGradient>
   <path fill="url(#VIOLET_2_3_)" display="inline" id="VIOLET_2_1_" d="M8,47.989c0,29.633,10.365,40,40,40&#xd;&#xa;&#x9;&#x9;&#x9;c29.637,0,40-10.367,40-40c0-28.985-9.926-39.53-38.091-39.979h-3.817C17.928,8.459,8,19.004,8,47.989z"/>
   <linearGradient id="HIGHLIGHT_VIO2_1_" y1="8.2554" x1="47.9995" y2="87.5043" gradientUnits="userSpaceOnUse" x2="47.9995">
    <stop offset="0.0364" style="stop-color:#FFFFFF"/>
    <stop offset="0.1299" style="stop-color:#F9F7FB"/>
    <stop offset="0.2745" style="stop-color:#EAE1EF"/>
    <stop offset="0.452" style="stop-color:#D1BEDC"/>
    <stop offset="0.6558" style="stop-color:#AF8CC1"/>
    <stop offset="0.8786" style="stop-color:#834EA0"/>
    <stop offset="1" style="stop-color:#69298C"/>
   </linearGradient>
   <path stroke-opacity="0.25" fill="url(#HIGHLIGHT_VIO2_1_)" display="inline" fill-opacity="0.25" id="HIGHLIGHT_VIO2" d="M48,8C18.365,8,8,18.365,8,48&#xd;&#xa;&#x9;&#x9;&#x9;c0,29.632,10.365,40,40,40c29.637,0,40-10.367,40-40C88,18.365,77.637,8,48,8z M48,87.023C18.842,87.023,9,77.176,9,48&#xd;&#xa;&#x9;&#x9;&#x9;C9,18.824,18.842,8.976,48,8.976S87,18.824,87,48C87,77.176,77.158,87.023,48,87.023z"/>
  </g>
  <g id="VIOLET_1_2_">
   <linearGradient id="VIOLET_1_3_" y1="9.7622" x1="47.9995" y2="89.7412" gradientUnits="userSpaceOnUse" x2="47.9995">
    <stop offset="0.0364" style="stop-color:#A14DDB"/>
    <stop offset="0.2205" style="stop-color:#9949D3"/>
    <stop offset="0.505" style="stop-color:#833CBE"/>
    <stop offset="0.8523" style="stop-color:#60299D"/>
    <stop offset="1" style="stop-color:#4F1F8C"/>
   </linearGradient>
   <path fill="url(#VIOLET_1_3_)" display="inline" id="VIOLET_1_1_" d="M8,47.989c0,29.633,10.365,40,40,40&#xd;&#xa;&#x9;&#x9;&#x9;c29.637,0,40-10.367,40-40c0-28.985-9.926-39.53-38.091-39.979h-3.817C17.928,8.459,8,19.004,8,47.989z"/>
   <linearGradient id="HIGHLIGHT_VIO1_1_" y1="8.2554" x1="47.9995" y2="87.5043" gradientUnits="userSpaceOnUse" x2="47.9995">
    <stop offset="0.0364" style="stop-color:#FFFFFF"/>
    <stop offset="1" style="stop-color:#4A1F8C"/>
   </linearGradient>
   <path stroke-opacity="0.25" fill="url(#HIGHLIGHT_VIO1_1_)" display="inline" fill-opacity="0.25" id="HIGHLIGHT_VIO1" d="M48,8C18.365,8,8,18.365,8,48&#xd;&#xa;&#x9;&#x9;&#x9;c0,29.632,10.365,40,40,40c29.637,0,40-10.367,40-40C88,18.365,77.637,8,48,8z M48,87.023C18.842,87.023,9,77.176,9,48&#xd;&#xa;&#x9;&#x9;&#x9;C9,18.824,18.842,8.977,48,8.977S87,18.824,87,48C87,77.176,77.158,87.023,48,87.023z"/>
  </g>
 </g>
 <g id="ICON">
  <path fill="#007DC9" display="none" id="Facebook_1_" d="M62.265,27.364c-7.37,0-13.344,4.296-13.344,9.596&#xd;&#xa;&#x9;&#x9;c0,3.137,2.102,5.913,5.338,7.665c-0.93,0.697-2.221,1.408-4.007,1.932c0,0,3.562,0.861,6.759-0.775&#xd;&#xa;&#x9;&#x9;c1.612,0.498,3.388,0.775,5.254,0.775c7.368,0,13.342-4.297,13.342-9.597S69.633,27.364,62.265,27.364z M64.83,33.393l-0.589-0.271&#xd;&#xa;&#x9;&#x9;c-0.143-0.065-0.32-0.099-0.528-0.099c-0.229,0-0.696,0-0.733,1.183h1.536v1.881h-1.539v5.485h-2.145v-5.485h-0.894v-1.881h0.896&#xd;&#xa;&#x9;&#x9;c0.033-1.055,0.332-1.857,0.89-2.388c0.483-0.469,1.158-0.729,1.896-0.729c0.404,0,0.833,0.081,1.176,0.222l0.373,0.153&#xd;&#xa;&#x9;&#x9;L64.83,33.393z"/>
  <path fill-opacity="0.05" d="M62.479,47.67c-8.677-1.011-16.365,3.555-17.137,10.18c-0.301,2.584,0.492,5.226,2.242,7.52&#xd;&#xa;&#x9;&#x9;c-1.099,0.201-1.935,1.113-2.039,2.229c-0.102,1.123,0.569,2.181,1.634,2.577c0.201,0.072,1.283,0.444,2.804,0.622&#xd;&#xa;&#x9;&#x9;c1.675,0.196,3.271,0.094,4.745-0.302c1.565,0.599,3.229,1.004,4.949,1.205c8.677,1.011,16.364-3.556,17.137-10.183&#xd;&#xa;&#x9;&#x9;C77.587,54.894,71.156,48.682,62.479,47.67z"/>
  <path fill-opacity="0.07" d="M62.421,48.167c-8.403-0.979-15.842,3.391-16.582,9.741c-0.313,2.684,0.649,5.479,2.655,7.787&#xd;&#xa;&#x9;&#x9;c-0.261,0.062-0.526,0.115-0.795,0.161c-0.891,0.152-1.572,0.887-1.655,1.789c-0.082,0.897,0.454,1.745,1.306,2.062&#xd;&#xa;&#x9;&#x9;c0.191,0.067,1.222,0.425,2.692,0.596c1.672,0.195,3.254,0.084,4.712-0.331c1.572,0.616,3.247,1.031,4.981,1.233&#xd;&#xa;&#x9;&#x9;c8.403,0.979,15.843-3.392,16.583-9.744C77.059,55.11,70.824,49.146,62.421,48.167z"/>
  <path fill-opacity="0.1" d="M62.364,48.664c-8.13-0.948-15.32,3.225-16.029,9.302c-0.327,2.805,0.793,5.679,3.088,7.995&#xd;&#xa;&#x9;&#x9;c-0.518,0.158-1.067,0.29-1.641,0.388c-0.668,0.113-1.179,0.665-1.241,1.341c-0.061,0.674,0.339,1.309,0.978,1.546&#xd;&#xa;&#x9;&#x9;c0.184,0.065,1.168,0.405,2.578,0.569c1.67,0.195,3.242,0.073,4.68-0.362c1.578,0.635,3.265,1.062,5.016,1.265&#xd;&#xa;&#x9;&#x9;c8.13,0.948,15.318-3.226,16.027-9.304C76.53,55.326,70.493,49.611,62.364,48.664z"/>
  <path fill-opacity="0.15" d="M62.306,49.159c-7.854-0.915-14.796,3.062-15.473,8.865c-0.339,2.907,0.941,5.837,3.533,8.139&#xd;&#xa;&#x9;&#x9;c-0.761,0.296-1.597,0.524-2.498,0.678c-0.446,0.077-0.786,0.443-0.828,0.894c-0.04,0.45,0.227,0.874,0.651,1.031&#xd;&#xa;&#x9;&#x9;c0.104,0.037,1.06,0.379,2.467,0.543c1.666,0.194,3.226,0.061,4.644-0.398c1.583,0.657,3.281,1.094,5.049,1.301&#xd;&#xa;&#x9;&#x9;c7.855,0.915,14.798-3.062,15.474-8.866C76.002,55.542,70.16,50.075,62.306,49.159z M61.383,56.068l0.231,0.026l-0.578,3.945&#xd;&#xa;&#x9;&#x9;L61.383,56.068z M60.285,64.101c0.01-0.074,0.057-0.312,0.312-0.281c0.067,0.007,0.273,0.03,0.237,0.346&#xd;&#xa;&#x9;&#x9;c-0.009,0.073-0.057,0.31-0.312,0.279C60.27,64.415,60.277,64.174,60.285,64.101z"/>
  <path fill-opacity="0.15" d="M62.247,49.657c-7.581-0.885-14.273,2.895-14.918,8.424c-0.348,2.987,1.094,5.946,3.978,8.219&#xd;&#xa;&#x9;&#x9;c-0.985,0.474-2.108,0.821-3.355,1.034c-0.223,0.037-0.392,0.222-0.413,0.445c-0.021,0.227,0.112,0.438,0.325,0.517&#xd;&#xa;&#x9;&#x9;c0.04,0.014,0.975,0.355,2.353,0.517c1.664,0.194,3.213,0.047,4.605-0.437c1.59,0.679,3.3,1.13,5.089,1.338&#xd;&#xa;&#x9;&#x9;c7.58,0.885,14.273-2.896,14.919-8.427C75.473,55.758,69.829,50.54,62.247,49.657z M60.929,55.512l1.255,0.147l-0.915,6.248&#xd;&#xa;&#x9;&#x9;l-0.887-0.104L60.929,55.512z M59.788,64.043c0.056-0.469,0.419-0.773,0.865-0.721c0.462,0.053,0.733,0.415,0.677,0.9&#xd;&#xa;&#x9;&#x9;c-0.055,0.469-0.417,0.771-0.865,0.719C60.019,64.89,59.734,64.511,59.788,64.043z"/>
  <linearGradient gradientTransform="matrix(0.9933 0.1158 -0.1158 0.9933 7.3342 -6.6695)" id="_x21__1_" y1="68.5088" x1="61.0664" y2="49.0879" gradientUnits="userSpaceOnUse" x2="61.0664">
   <stop offset="0" style="stop-color:#D0CBC5"/>
   <stop offset="0.5031" style="stop-color:#FAFCEF"/>
   <stop offset="0.9693" style="stop-color:#FFFFFF"/>
  </linearGradient>
  <path fill="url(#_x21__1_)" id="_x21_" d="M62.306,49.159c-7.319-0.853-13.75,2.723-14.364,7.987&#xd;&#xa;&#x9;&#x9;c-0.363,3.115,1.402,6.116,4.414,8.23c-1.004,0.586-2.368,1.142-4.203,1.457c0,0,3.437,1.266,6.802,0.011&#xd;&#xa;&#x9;&#x9;c1.545,0.683,3.274,1.164,5.129,1.38c7.318,0.853,13.751-2.723,14.364-7.988C75.062,54.973,69.624,50.013,62.306,49.159z&#xd;&#xa;&#x9;&#x9; M62.868,54.229l-1.059,7.238l-1.853-0.217l0.635-7.286L62.868,54.229z M60.522,64.444c-0.723-0.083-1.201-0.709-1.114-1.452&#xd;&#xa;&#x9;&#x9;c0.087-0.745,0.696-1.245,1.419-1.16c0.734,0.086,1.203,0.698,1.115,1.455C61.856,64.031,61.245,64.529,60.522,64.444z"/>
  <path fill-opacity="0.05" d="M45.956,40.693c-2.46-2.663-6.018-4.578-10.017-5.393c-1.378-0.283-2.775-0.426-4.152-0.426&#xd;&#xa;&#x9;&#x9;c-7.025,0-12.695,3.744-13.789,9.104c-0.679,3.322,0.416,6.741,3.083,9.627c2.458,2.661,6.015,4.578,10.018,5.398&#xd;&#xa;&#x9;&#x9;c1.376,0.279,2.768,0.421,4.136,0.421c0.316,0,0.631-0.008,0.943-0.022c2.998,1.953,6.411,2.054,7.073,2.054l0.212-0.001&#xd;&#xa;&#x9;&#x9;c1.128-0.044,2.09-0.844,2.34-1.943c0.25-1.095-0.26-2.222-1.238-2.75c2.378-1.634,3.956-3.896,4.477-6.443&#xd;&#xa;&#x9;&#x9;C49.72,46.998,48.624,43.58,45.956,40.693z"/>
  <path fill-opacity="0.07" d="M45.588,41.032c-2.389-2.585-5.852-4.448-9.75-5.243c-1.346-0.276-2.709-0.416-4.052-0.416&#xd;&#xa;&#x9;&#x9;c-6.785,0-12.253,3.58-13.299,8.705c-0.646,3.161,0.406,6.423,2.961,9.188c2.387,2.585,5.85,4.448,9.75,5.247&#xd;&#xa;&#x9;&#x9;c1.342,0.272,2.7,0.411,4.037,0.411c0.363,0,0.725-0.011,1.082-0.03c2.909,1.961,6.278,2.062,6.934,2.062&#xd;&#xa;&#x9;&#x9;c0.001,0,0.193-0.001,0.193-0.001c0.902-0.035,1.672-0.675,1.872-1.555c0.202-0.883-0.215-1.793-1.013-2.211&#xd;&#xa;&#x9;&#x9;c-0.242-0.129-0.477-0.263-0.705-0.401c2.625-1.567,4.413-3.924,4.954-6.569C49.197,47.06,48.145,43.797,45.588,41.032z"/>
  <path fill-opacity="0.1" d="M45.221,41.372c-2.318-2.509-5.687-4.318-9.483-5.092c-1.314-0.269-2.644-0.405-3.952-0.405&#xd;&#xa;&#x9;&#x9;c-6.544,0-11.812,3.415-12.809,8.305c-0.613,2.999,0.395,6.105,2.838,8.749c2.317,2.509,5.685,4.318,9.483,5.096&#xd;&#xa;&#x9;&#x9;c1.311,0.267,2.635,0.401,3.937,0.401c0.412,0,0.821-0.014,1.223-0.04c2.815,1.97,6.144,2.071,6.792,2.071l0.173-0.001&#xd;&#xa;&#x9;&#x9;c0.677-0.026,1.254-0.506,1.404-1.166c0.151-0.663-0.162-1.345-0.759-1.658c-0.514-0.272-0.995-0.567-1.438-0.88&#xd;&#xa;&#x9;&#x9;c2.904-1.484,4.864-3.866,5.43-6.633C48.674,47.122,47.665,44.015,45.221,41.372z"/>
  <path fill-opacity="0.15" d="M44.854,41.711c-2.248-2.433-5.521-4.188-9.216-4.942c-1.282-0.262-2.578-0.395-3.852-0.395&#xd;&#xa;&#x9;&#x9;c-6.304,0-11.37,3.25-12.319,7.905c-0.58,2.836,0.385,5.788,2.716,8.31c2.247,2.433,5.519,4.188,9.215,4.944&#xd;&#xa;&#x9;&#x9;c1.277,0.26,2.569,0.392,3.837,0.392c0.461,0,0.92-0.018,1.367-0.052c2.719,1.981,6.007,2.083,6.648,2.083&#xd;&#xa;&#x9;&#x9;c0.001,0,0.154-0.001,0.154-0.001c0.451-0.018,0.836-0.338,0.937-0.777c0.101-0.441-0.108-0.896-0.506-1.105&#xd;&#xa;&#x9;&#x9;c-0.807-0.428-1.531-0.905-2.16-1.423c3.18-1.38,5.311-3.762,5.896-6.632C48.15,47.184,47.186,44.233,44.854,41.711z&#xd;&#xa;&#x9;&#x9; M32.385,45.643c-0.083-0.124-0.191-0.225-0.316-0.299c0.146-0.023,0.284-0.077,0.405-0.16c0.219-0.148,0.373-0.381,0.422-0.639&#xd;&#xa;&#x9;&#x9;l0.122-0.63l0.135-0.009l-0.128,0.663c-0.051,0.264,0.003,0.53,0.153,0.75c0.083,0.123,0.192,0.225,0.318,0.3&#xd;&#xa;&#x9;&#x9;c-0.411,0.063-0.749,0.38-0.829,0.798l-0.557,2.88c-0.11,0.567-0.087,0.952,0.076,1.285c0.117,0.239,0.293,0.419,0.525,0.54&#xd;&#xa;&#x9;&#x9;c-0.245-0.065-0.529-0.2-0.698-0.489c-0.104-0.16-0.195-0.52-0.04-1.322l0.564-2.918C32.589,46.131,32.535,45.865,32.385,45.643z"/>
  <path fill-opacity="0.15" d="M44.487,42.05c-2.177-2.356-5.355-4.058-8.949-4.792c-1.249-0.255-2.511-0.385-3.751-0.385&#xd;&#xa;&#x9;&#x9;c-6.063,0-10.928,3.086-11.83,7.505c-0.546,2.674,0.375,5.47,2.593,7.871c2.176,2.356,5.354,4.059,8.948,4.793&#xd;&#xa;&#x9;&#x9;c1.243,0.253,2.5,0.382,3.738,0.382c0.507,0,1.016-0.021,1.514-0.065c2.619,1.994,5.866,2.097,6.501,2.097l0.134-0.001&#xd;&#xa;&#x9;&#x9;c0.226-0.009,0.418-0.168,0.469-0.389s-0.053-0.447-0.253-0.553c-1.117-0.592-2.077-1.272-2.863-2.029&#xd;&#xa;&#x9;&#x9;c3.448-1.258,5.742-3.618,6.344-6.566C47.627,47.246,46.706,44.451,44.487,42.05z M34.88,46.336l-1.137-0.219&#xd;&#xa;&#x9;&#x9;c-0.032-0.006-0.064-0.009-0.095-0.009c-0.235,0-0.444,0.166-0.49,0.405l-0.557,2.88c-0.087,0.452-0.078,0.742,0.034,0.97&#xd;&#xa;&#x9;&#x9;c0.161,0.327,0.469,0.387,0.584,0.409c0.208,0.04,0.382,0.054,0.549,0.054c0.006,0,0.125-0.007,0.125-0.007l-0.114,0.865&#xd;&#xa;&#x9;&#x9;c-0.099,0.02-0.219,0.031-0.357,0.031c-0.208,0-0.436-0.024-0.683-0.073c-0.521-0.1-0.922-0.353-1.145-0.735&#xd;&#xa;&#x9;&#x9;c-0.228-0.35-0.264-0.902-0.112-1.689l0.564-2.919c0.053-0.271-0.125-0.533-0.396-0.585l-0.478-0.093l0.167-0.866l0.478,0.092&#xd;&#xa;&#x9;&#x9;c0.032,0.006,0.063,0.009,0.095,0.009c0.099,0,0.197-0.029,0.28-0.086c0.11-0.074,0.186-0.189,0.211-0.319l0.195-1.006l1.168-0.082&#xd;&#xa;&#x9;&#x9;l-0.252,1.303c-0.025,0.13,0.002,0.265,0.077,0.375c0.074,0.11,0.189,0.186,0.319,0.211l1.137,0.22L34.88,46.336z"/>
  <linearGradient id="Twitte_1_" y1="57.9561" x1="33.519" y2="36.375" gradientUnits="userSpaceOnUse" x2="33.519">
   <stop offset="0" style="stop-color:#D0CBC5"/>
   <stop offset="0.5031" style="stop-color:#FAFCEF"/>
   <stop offset="0.9693" style="stop-color:#FFFFFF"/>
  </linearGradient>
  <path fill="url(#Twitte_1_)" id="Twitte" d="M35.438,36.749c-7.22-1.475-13.932,1.539-14.991,6.73&#xd;&#xa;&#x9;&#x9;c-1.062,5.195,3.933,10.599,11.151,12.074c1.829,0.373,3.623,0.456,5.303,0.291c2.805,2.243,6.466,2.111,6.466,2.111&#xd;&#xa;&#x9;&#x9;c-1.645-0.871-2.767-1.825-3.538-2.694c3.521-1.068,6.135-3.368,6.763-6.442C47.651,43.627,42.658,38.222,35.438,36.749z&#xd;&#xa;&#x9;&#x9; M35.276,45.922l-1.628-0.314l-0.557,2.879c-0.14,0.723,0.044,0.759,0.222,0.793c0.177,0.034,0.325,0.046,0.44,0.046l0.715-0.047&#xd;&#xa;&#x9;&#x9;l-0.24,1.824l-0.351,0.07c-0.126,0.025-0.279,0.041-0.456,0.041c-0.239,0-0.5-0.027-0.776-0.082&#xd;&#xa;&#x9;&#x9;c-0.665-0.127-1.188-0.467-1.471-0.954c-0.301-0.464-0.364-1.124-0.183-2.057l0.564-2.919l-0.969-0.188l0.357-1.848l0.969,0.188&#xd;&#xa;&#x9;&#x9;l0.268-1.383l2.201-0.155l-0.376,1.943l1.628,0.315L35.276,45.922z"/>
  <path fill-opacity="0.05" d="M61.077,23.989c-8.736,0-15.844,5.426-15.844,12.096c0,2.6,1.093,5.131,3.097,7.207&#xd;&#xa;&#x9;&#x9;c-1.068,0.328-1.792,1.331-1.766,2.449c0.027,1.13,0.816,2.105,1.922,2.373c0.208,0.049,1.326,0.295,2.859,0.295&#xd;&#xa;&#x9;&#x9;c1.684,0,3.256-0.286,4.676-0.85c1.624,0.413,3.324,0.623,5.056,0.623c8.735,0,15.842-5.427,15.842-12.097&#xd;&#xa;&#x9;&#x9;C76.919,29.415,69.812,23.989,61.077,23.989z"/>
  <path fill-opacity="0.07" d="M61.077,24.489c-8.461,0-15.344,5.202-15.344,11.596c0,2.7,1.28,5.367,3.539,7.426&#xd;&#xa;&#x9;&#x9;c-0.25,0.091-0.509,0.175-0.771,0.252c-0.867,0.255-1.458,1.063-1.437,1.966c0.021,0.904,0.652,1.684,1.536,1.898&#xd;&#xa;&#x9;&#x9;c0.198,0.047,1.266,0.281,2.745,0.281c1.682,0,3.241-0.295,4.641-0.875c1.632,0.43,3.344,0.648,5.091,0.648&#xd;&#xa;&#x9;&#x9;c8.46,0,15.342-5.203,15.342-11.597C76.419,29.69,69.537,24.489,61.077,24.489z"/>
  <path fill-opacity="0.1" d="M61.077,24.989c-8.185,0-14.844,4.978-14.844,11.096c0,2.824,1.445,5.549,3.994,7.583&#xd;&#xa;&#x9;&#x9;c-0.496,0.218-1.027,0.41-1.586,0.574c-0.65,0.191-1.093,0.797-1.077,1.475c0.016,0.678,0.488,1.263,1.15,1.423&#xd;&#xa;&#x9;&#x9;c0.116,0.027,1.17,0.269,2.631,0.269c1.679,0,3.227-0.305,4.604-0.903c1.64,0.449,3.364,0.677,5.128,0.677&#xd;&#xa;&#x9;&#x9;c8.184,0,14.842-4.979,14.842-11.097C75.919,29.966,69.261,24.989,61.077,24.989z"/>
  <path fill-opacity="0.15" d="M61.077,25.489c-7.909,0-14.344,4.753-14.344,10.596c0,2.928,1.612,5.688,4.452,7.676&#xd;&#xa;&#x9;&#x9;c-0.722,0.382-1.526,0.704-2.402,0.961c-0.434,0.127-0.729,0.532-0.719,0.983s0.325,0.841,0.767,0.948&#xd;&#xa;&#x9;&#x9;c0.108,0.026,1.108,0.254,2.515,0.254c1.677,0,3.211-0.313,4.564-0.933c1.648,0.469,3.386,0.706,5.167,0.706&#xd;&#xa;&#x9;&#x9;c7.908,0,14.342-4.753,14.342-10.597C75.419,30.242,68.985,25.489,61.077,25.489z M59.987,34.273&#xd;&#xa;&#x9;&#x9;c0.376-0.134,0.646-0.487,0.66-0.911c0.023-0.782,0.22-1.353,0.587-1.701c0.113-0.11,0.246-0.202,0.394-0.273&#xd;&#xa;&#x9;&#x9;c-0.429,0.269-0.801,0.82-0.836,1.913c-0.008,0.269,0.095,0.533,0.282,0.728c0.107,0.11,0.236,0.192,0.376,0.243&#xd;&#xa;&#x9;&#x9;c-0.385,0.139-0.661,0.508-0.661,0.941v4.485h-0.145v-4.485C60.645,34.781,60.37,34.413,59.987,34.273z"/>
  <path fill-opacity="0.15" d="M61.077,25.989c-7.634,0-13.844,4.529-13.844,10.096c0,3.008,1.775,5.78,4.903,7.702&#xd;&#xa;&#x9;&#x9;c-0.924,0.584-2.001,1.059-3.213,1.415c-0.217,0.064-0.365,0.266-0.359,0.492c0.006,0.226,0.162,0.42,0.383,0.474&#xd;&#xa;&#x9;&#x9;c0.041,0.01,1.011,0.241,2.398,0.241c1.675,0,3.195-0.325,4.522-0.965c1.657,0.49,3.409,0.739,5.209,0.739&#xd;&#xa;&#x9;&#x9;c7.633,0,13.842-4.529,13.842-10.097C74.919,30.518,68.71,25.989,61.077,25.989z M59.645,34.712h-0.394v-0.881h0.396&#xd;&#xa;&#x9;&#x9;c0.271,0,0.491-0.214,0.5-0.484c0.028-0.918,0.275-1.605,0.738-2.044c0.391-0.379,0.94-0.588,1.548-0.588&#xd;&#xa;&#x9;&#x9;c0.337,0,0.705,0.069,0.986,0.185l-0.157,0.894c-0.209-0.096-0.457-0.144-0.737-0.144c-0.783,0-1.198,0.561-1.233,1.667&#xd;&#xa;&#x9;&#x9;c-0.004,0.135,0.047,0.267,0.141,0.364c0.095,0.097,0.224,0.152,0.359,0.152h1.036v0.881h-1.039c-0.276,0-0.5,0.224-0.5,0.5v4.985&#xd;&#xa;&#x9;&#x9;h-1.145v-4.985C60.145,34.936,59.921,34.712,59.645,34.712z"/>
  <linearGradient id="Facebook_2_" y1="44.9077" x1="61.0762" y2="25.4888" gradientUnits="userSpaceOnUse" x2="61.0762">
   <stop offset="0" style="stop-color:#D0CBC5"/>
   <stop offset="0.5031" style="stop-color:#FAFCEF"/>
   <stop offset="0.9693" style="stop-color:#FFFFFF"/>
  </linearGradient>
  <path fill="url(#Facebook_2_)" id="Facebook" d="M61.077,25.489c-7.37,0-13.344,4.296-13.344,9.596&#xd;&#xa;&#x9;&#x9;c0,3.137,2.102,5.913,5.338,7.665c-0.93,0.697-2.221,1.408-4.007,1.932c0,0,3.562,0.861,6.759-0.775&#xd;&#xa;&#x9;&#x9;c1.612,0.498,3.388,0.775,5.254,0.775c7.368,0,13.342-4.297,13.342-9.597S68.445,25.489,61.077,25.489z M63.643,31.518&#xd;&#xa;&#x9;&#x9;l-0.589-0.271c-0.143-0.065-0.32-0.099-0.528-0.099c-0.229,0-0.696,0-0.733,1.183h1.536v1.881h-1.539v5.485h-2.145v-5.485h-0.894&#xd;&#xa;&#x9;&#x9;v-1.881h0.896c0.033-1.055,0.332-1.857,0.89-2.388c0.483-0.469,1.158-0.729,1.896-0.729c0.404,0,0.833,0.081,1.176,0.222&#xd;&#xa;&#x9;&#x9;l0.373,0.153L63.643,31.518z"/>
 </g>
 <g display="none" id="DO_NOT_EDIT_-_FOCAL_ZONE_GUIDES_ONLY"/>
</svg>
